<svg width="100" height="68" viewBox="0 0 100 68" fill="none" xmlns="http://www.w3.org/2000/svg">
<path d="M64.2022 32.8767C64.2022 49.8992 50.4027 63.6986 33.3803 63.6986C16.3579 63.6986 2.55843 49.8992 2.55843 32.8767C2.55843 15.8542 16.3579 2.05479 33.3803 2.05479C50.4027 2.05479 64.2022 15.8542 64.2022 32.8767Z" fill="#50C2E5"/>
<path d="M97.4416 32.8767C97.4416 49.8992 83.7773 63.6986 66.9218 63.6986C50.0663 63.6986 36.4021 49.8992 36.4021 32.8767C36.4021 15.8542 50.0663 2.05479 66.9218 2.05479C83.7773 2.05479 97.4416 15.8542 97.4416 32.8767Z" fill="#FF7917"/>
<path d="M50.2336 58.6871C58.6451 53.1834 64.2022 43.6792 64.2022 32.8767C64.2022 22.0745 58.6451 12.5701 50.2336 7.06649C41.9047 12.5701 36.4021 22.0745 36.4021 32.8767C36.4021 43.6792 41.9047 53.1834 50.2336 58.6871Z" fill="#5D2C02"/>
</svg>
